<svg width="33" height="35" viewBox="0 0 33 35" fill="none" xmlns="http://www.w3.org/2000/svg">
<path fill-rule="evenodd" clip-rule="evenodd" d="M32.0719 0.619806V33.5634C32.0719 33.9313 31.688 34.1732 31.3561 34.0144L24.4856 30.7268C24.2126 30.5962 23.8952 30.5962 23.6223 30.7268L16.7266 34.0265C16.2899 34.2355 15.782 34.2355 15.3453 34.0265L8.44962 30.7268C8.17668 30.5962 7.85928 30.5962 7.58633 30.7268L0.715822 34.0144C0.383948 34.1732 0 33.9313 0 33.5634V0.619806C0 0.251893 0.383948 0.00997645 0.715822 0.168784L7.58633 3.45645C7.85928 3.58705 8.17668 3.58705 8.44962 3.45645L15.3453 0.15673C15.782 -0.0522431 16.2899 -0.0522433 16.7266 0.15673L23.6223 3.45645C23.8952 3.58705 24.2126 3.58705 24.4856 3.45645L31.3561 0.168784C31.688 0.00997651 32.0719 0.251893 32.0719 0.619806ZM10.3088 11.7957C10.0327 11.7957 9.80883 12.0195 9.80883 12.2957C9.80883 12.5718 10.0327 12.7957 10.3088 12.7957H21.7631C22.0392 12.7957 22.2631 12.5718 22.2631 12.2957C22.2631 12.0195 22.0392 11.7957 21.7631 11.7957H10.3088ZM10.3088 16.5916C10.0327 16.5916 9.80883 16.8155 9.80883 17.0916C9.80883 17.3677 10.0327 17.5916 10.3088 17.5916H21.7631C22.0392 17.5916 22.2631 17.3677 22.2631 17.0916C22.2631 16.8155 22.0392 16.5916 21.7631 16.5916H10.3088ZM10.3088 21.3875C10.0327 21.3875 9.80883 21.6114 9.80883 21.8875C9.80883 22.1637 10.0327 22.3875 10.3088 22.3875H21.7631C22.0392 22.3875 22.2631 22.1637 22.2631 21.8875C22.2631 21.6114 22.0392 21.3875 21.7631 21.3875H10.3088Z" fill="#000AFF"/>
</svg>
