<svg width="45" height="40" viewBox="0 0 45 40" fill="none" xmlns="http://www.w3.org/2000/svg">
<path d="M17.1445 34.6369V29.5254C17.1445 28.2302 18.3294 27.1779 19.7971 27.1697H25.1861C26.6604 27.1697 27.8555 28.2244 27.8555 29.5254V34.622C27.8555 35.7455 28.8825 36.6585 30.1555 36.6667H33.8322C35.5493 36.6706 37.1977 36.0713 38.4134 35.0012C39.6292 33.931 40.3125 32.4779 40.3125 30.9625V16.4431C40.3125 15.219 39.6976 14.0579 38.6337 13.2725L26.1431 4.45712C23.9597 2.91521 20.8413 2.96502 18.7226 4.57565L6.50065 13.2725C5.38639 14.0347 4.72041 15.1993 4.6875 16.4431V30.9477C4.6875 34.1062 7.58884 36.6667 11.1678 36.6667H14.7605C15.3734 36.6706 15.9628 36.4585 16.3978 36.0774C16.8327 35.6963 17.0774 35.1778 17.0773 34.6369H17.1445Z" fill="#000AFF"/>
</svg>
