<svg width="36" height="34" viewBox="0 0 36 34" fill="none" xmlns="http://www.w3.org/2000/svg">
<path fill-rule="evenodd" clip-rule="evenodd" d="M24 2.99999C23.4477 2.99999 23 2.55227 23 1.99999V0.280365H6C3.17157 0.280365 1.75736 0.280365 0.87868 1.15904C0 2.03772 0 3.45194 0 6.28036V11.261C0 11.727 0 11.9599 0.0761205 12.1437C0.177614 12.3887 0.372288 12.5834 0.617317 12.6849C0.801088 12.761 1.03406 12.761 1.5 12.761H1.83978C2.91936 12.761 3.45915 12.761 3.89728 12.8983C4.83469 13.1922 5.56885 13.9263 5.86267 14.8637C6 15.3019 6 15.8416 6 16.9212C6 18.0008 6 18.5406 5.86267 18.9787C5.56885 19.9161 4.83469 20.6503 3.89728 20.9441C3.45915 21.0814 2.91936 21.0814 1.83978 21.0814H1.5C1.03406 21.0814 0.801088 21.0814 0.617317 21.1576C0.372288 21.2591 0.177614 21.4537 0.0761205 21.6988C0 21.8825 0 22.1155 0 22.5814V27.5621C0 30.3905 0 31.8047 0.87868 32.6834C1.75736 33.5621 3.17157 33.5621 6 33.5621H24V33C23.4477 33 23 32.5523 23 32V30C23 29.4477 23.4477 29 24 29V23C23.4477 23 23 22.5523 23 22V20C23 19.4477 23.4477 19 24 19V13C23.4477 13 23 12.5523 23 12V9.99999C23 9.4477 23.4477 8.99999 24 8.99999V2.99999Z" fill="#000AFF"/>
<path fill-rule="evenodd" clip-rule="evenodd" d="M36 27.5621C36 29.755 36 31.0978 35.5905 32H25V30C25 29.4477 24.5523 29 24 29V23C24.5523 23 25 22.5523 25 22V20C25 19.4477 24.5523 19 24 19V13C24.5523 13 25 12.5523 25 12V9.99999C25 9.4477 24.5523 8.99999 24 8.99999V2.99999C24.5523 2.99999 25 2.55227 25 1.99999V0.280365H30C32.8284 0.280365 34.2426 0.280365 35.1213 1.15904C36 2.03772 36 3.45194 36 6.28036V11.261C36 11.727 36 11.9599 35.9239 12.1437C35.8224 12.3887 35.6277 12.5834 35.3827 12.6849C35.1989 12.761 34.9659 12.761 34.5 12.761H34.1602C33.0806 12.761 32.5408 12.761 32.1027 12.8983C31.1653 13.1922 30.4312 13.9263 30.1373 14.8637C30 15.3019 30 15.8416 30 16.9212C30 18.0008 30 18.5406 30.1373 18.9787C30.4312 19.9161 31.1653 20.6503 32.1027 20.9441C32.5408 21.0814 33.0806 21.0814 34.1602 21.0814H34.5C34.9659 21.0814 35.1989 21.0814 35.3827 21.1576C35.6277 21.2591 35.8224 21.4537 35.9239 21.6988C36 21.8825 36 22.1155 36 22.5814V27.5621Z" fill="#000AFF"/>
</svg>
