<svg width="40" height="32" viewBox="0 0 40 32" fill="none" xmlns="http://www.w3.org/2000/svg">
<path fill-rule="evenodd" clip-rule="evenodd" d="M0.000348916 12.0414H39.9997C39.994 6.81854 39.8975 4.10963 38.2426 2.38851C36.4853 0.56076 33.6569 0.56076 28 0.56076H12C6.34315 0.56076 3.51472 0.56076 1.75736 2.38851C0.102521 4.10963 0.00598091 6.81853 0.000348916 12.0414ZM40 14.0414H0V19.2817C0 25.1652 0 28.1069 1.75736 29.9346C3.51472 31.7624 6.34315 31.7624 12 31.7624H28C33.6569 31.7624 36.4853 31.7624 38.2426 29.9346C40 28.1069 40 25.1652 40 19.2817V14.0414ZM10 22.4419C9.44771 22.4419 9 22.8896 9 23.4419C9 23.9942 9.44771 24.4419 10 24.4419H10.02C10.5723 24.4419 11.02 23.9942 11.02 23.4419C11.02 22.8896 10.5723 22.4419 10.02 22.4419H10Z" fill="black"/>
</svg>
